<mxfile host="app.diagrams.net" modified="2021-03-16T03:00:57.853Z" agent="5.0 (Windows NT 10.0; Win64; x64) AppleWebKit/537.36 (KHTML, like Gecko) Chrome/89.0.4389.82 Safari/537.36" etag="4vohd_bPsHOhROJRxyBV" version="14.4.8" type="github">
  <diagram id="XN0unmVlaVsrypChJ_El" name="Page-1">
    <mxGraphModel dx="1108" dy="459" grid="1" gridSize="10" guides="1" tooltips="1" connect="1" arrows="1" fold="1" page="1" pageScale="1" pageWidth="827" pageHeight="1169" math="0" shadow="0">
      <root>
        <mxCell id="0" />
        <mxCell id="1" parent="0" />
        <mxCell id="6uuYuOon9eJHCCDptDE2-8" value="" style="edgeStyle=orthogonalEdgeStyle;rounded=0;orthogonalLoop=1;jettySize=auto;html=1;" edge="1" parent="1" source="6uuYuOon9eJHCCDptDE2-1" target="6uuYuOon9eJHCCDptDE2-7">
          <mxGeometry relative="1" as="geometry" />
        </mxCell>
        <mxCell id="6uuYuOon9eJHCCDptDE2-1" value="&lt;div&gt;&lt;span style=&quot;font-size: 11px&quot;&gt;&amp;nbsp; &amp;nbsp; &amp;nbsp; &amp;nbsp; &amp;nbsp; &amp;nbsp; &amp;nbsp; &amp;nbsp; &amp;nbsp; &amp;nbsp; &amp;nbsp; &amp;nbsp; &amp;nbsp; &amp;nbsp; &amp;nbsp;Nginx服务&lt;/span&gt;&lt;/div&gt;&lt;div&gt;&lt;span style=&quot;color: rgb(50 , 50 , 50) ; font-size: 13px ; text-align: center&quot;&gt;1.依旧请求进来先去nginx查是不是可以预约的，否则直接返回预约完成&lt;/span&gt;&lt;/div&gt;&lt;div&gt;&lt;div style=&quot;resize: none ; outline: 0px ; font-size: 13px ; color: rgb(50 , 50 , 50)&quot;&gt;2.限流：根据ip限流&lt;/div&gt;&lt;/div&gt;&lt;font style=&quot;font-size: 11px&quot;&gt;&lt;br&gt;&lt;/font&gt;" style="rounded=0;whiteSpace=wrap;html=1;align=left;" vertex="1" parent="1">
          <mxGeometry x="180" y="70" width="290" height="140" as="geometry" />
        </mxCell>
        <mxCell id="6uuYuOon9eJHCCDptDE2-4" style="edgeStyle=orthogonalEdgeStyle;rounded=0;orthogonalLoop=1;jettySize=auto;html=1;" edge="1" parent="1" source="6uuYuOon9eJHCCDptDE2-3" target="6uuYuOon9eJHCCDptDE2-1">
          <mxGeometry relative="1" as="geometry" />
        </mxCell>
        <mxCell id="6uuYuOon9eJHCCDptDE2-3" value="Actor" style="shape=umlActor;verticalLabelPosition=bottom;verticalAlign=top;html=1;outlineConnect=0;" vertex="1" parent="1">
          <mxGeometry x="40" y="110" width="30" height="60" as="geometry" />
        </mxCell>
        <mxCell id="6uuYuOon9eJHCCDptDE2-7" value="&lt;div&gt;&lt;/div&gt;&lt;font style=&quot;font-size: 8px&quot;&gt;&lt;span style=&quot;color: rgb(50 , 50 , 50) ; background-color: rgba(255 , 255 , 255 , 0.01)&quot;&gt;&amp;nbsp; &amp;nbsp; &amp;nbsp; &amp;nbsp; &amp;nbsp; &amp;nbsp; &amp;nbsp; &amp;nbsp; &amp;nbsp; &amp;nbsp; &amp;nbsp; &amp;nbsp; &amp;nbsp; &amp;nbsp; &amp;nbsp; &amp;nbsp; &amp;nbsp; &amp;nbsp; &amp;nbsp; &amp;nbsp; &amp;nbsp; &amp;nbsp; &amp;nbsp;&lt;b&gt; &amp;nbsp; Tomcat集群&lt;/b&gt;&lt;/span&gt;&lt;div style=&quot;resize: none ; outline: 0px ; color: rgb(50 , 50 , 50)&quot;&gt;1.登录token校验&lt;/div&gt;&lt;div style=&quot;resize: none ; outline: 0px ; color: rgb(50 , 50 , 50)&quot;&gt;2.做基础校验并加到线程池：&lt;/div&gt;&lt;div style=&quot;resize: none ; outline: 0px ; color: rgb(50 , 50 , 50)&quot;&gt;&amp;nbsp; &amp;nbsp;① redis&amp;nbsp;hash&amp;nbsp;用户id&amp;nbsp;incre1&amp;nbsp;判断是否已经加入抢购队列，如果是返回预约中&lt;/div&gt;&lt;div style=&quot;resize: none ; outline: 0px ; color: rgb(50 , 50 , 50)&quot;&gt;&amp;nbsp; &amp;nbsp;②&amp;nbsp;new&amp;nbsp;YuyueStatus（）{&lt;/div&gt;&lt;div style=&quot;resize: none ; outline: 0px ; color: rgb(50 , 50 , 50)&quot;&gt;username&amp;nbsp; 预约用户&lt;/div&gt;&lt;div style=&quot;resize: none ; outline: 0px ; color: rgb(50 , 50 , 50)&quot;&gt;status&amp;nbsp; &amp;nbsp;预约状态（排队中）&lt;/div&gt;&lt;div style=&quot;resize: none ; outline: 0px ; color: rgb(50 , 50 , 50)&quot;&gt;id&amp;nbsp; 排班id&lt;/div&gt;&lt;div style=&quot;resize: none ; outline: 0px ; color: rgb(50 , 50 , 50)&quot;&gt;。。。。。预约订单显示其他信息}&lt;/div&gt;&lt;div style=&quot;resize: none ; outline: 0px ; color: rgb(50 , 50 , 50)&quot;&gt;用于查询时显示，push到redis里&lt;/div&gt;&lt;div style=&quot;resize: none ; outline: 0px ; color: rgb(50 , 50 , 50)&quot;&gt;list（YuyueStatusQueue）和&lt;/div&gt;&lt;div style=&quot;resize: none ; outline: 0px ; color: rgb(50 , 50 , 50)&quot;&gt;hash（YuyueStatusQueryHash）里&lt;/div&gt;&lt;div style=&quot;resize: none ; outline: 0px ; color: rgb(50 , 50 , 50)&quot;&gt;（hash用于查询预约状态，list用于线程池取出来去操作）&lt;/div&gt;&lt;div style=&quot;resize: none ; outline: 0px ; color: rgb(50 , 50 , 50)&quot;&gt;&amp;nbsp; &amp;nbsp;③&amp;nbsp;放到线程池里去操作，并返回true，排队中。&lt;/div&gt;&lt;div style=&quot;resize: none ; outline: 0px ; color: rgb(50 , 50 , 50)&quot;&gt;&lt;br&gt;&lt;/div&gt;&lt;div style=&quot;resize: none ; outline: 0px ; color: rgb(50 , 50 , 50)&quot;&gt;这一步操作成功了，就返回用户排队预约中。。。。。&lt;/div&gt;&lt;div style=&quot;resize: none ; outline: 0px ; color: rgb(50 , 50 , 50)&quot;&gt;然后用户可以在预约中心查询，也就是redis里查到&lt;/div&gt;&lt;/font&gt;" style="rounded=0;whiteSpace=wrap;html=1;align=left;" vertex="1" parent="1">
          <mxGeometry x="125" y="290" width="400" height="270" as="geometry" />
        </mxCell>
      </root>
    </mxGraphModel>
  </diagram>
</mxfile>
